# xmcd CD database file
#
# Track frame offsets:
#	150
#	20625
#	36663
#	57098
#
# Disc length: 973 seconds
#
# Revision: 2
# Processed by: cddbd v1.5.1PL0 Copyright (c) Steve Scherf et al.
# Submitted via: CDex 1.51
#
DISCID=3203cb04
DTITLE=中山マミ - いきなりはっぴぃベル
DYEAR=2002
DGENRE=Game
TTITLE0=見つめていたい
TTITLE1=手をつなぎながら
TTITLE2=見つめていたい(オリジナルカラオケ)
TTITLE3=手をつなぎながら(オリジナルカラオケ)
EXTD=YEAR: 2002
EXTT0=
EXTT1=
EXTT2=
EXTT3=
PLAYORDER=
